# xmcd CD database file
#
# Track frame offsets:
#	150
#	11866
#	23738
#	38916
#	50138
#	61592
#	73531
#	86120
#	96582
#	108330
#	123198
#	136940
#
# Disc length: 1980 seconds
#
# Revision: 2
# Processed by: cddbd v1.5.1PL0 Copyright (c) Steve Scherf et al.
# Submitted via: CDex 1.51
#
DISCID=a207ba0c
DTITLE=ataíde and alexandre - festa de sucessos
DYEAR=1900
DGENRE=Country
TTITLE0=choradeira-ataíde and alexandre
TTITLE1=tá nervoso...vai pescar-ataíde and alexandre
TTITLE2=eu me enganei-ataíde and alexandre
TTITLE3=estrada do amor-ataíde and alexandre
TTITLE4=paixão é bucha-ataíde and alexandre
TTITLE5=a bebida não cura-ataíde and alexandre
TTITLE6=apaziguar-ataíde and alexandre
TTITLE7=lado feminino-ataíde and alexandre
TTITLE8=só outra paixão-ataíde and alexandre
TTITLE9=meu coração faz tum, tum-ataíde and alexandre
TTITLE10=uai sô-ataíde and alexandre
TTITLE11=sobrou pra mim-ataíde and alexandre
EXTD=
EXTT0=
EXTT1=
EXTT2=
EXTT3=
EXTT4=
EXTT5=
EXTT6=
EXTT7=
EXTT8=
EXTT9=
EXTT10=
EXTT11=
PLAYORDER=
